PathFileType	4	(X/Y/Z)	/Users/itak/Documents/Research/Walk-IL/dataset/trc/00073_00006.trc
DataRate	CameraRate	NumFrames	NumMarkers	Units	OrigDataRate	OrigDataStartFrame	OrigNumFrames
100.000000	100.000000	4	53	mm	100.000000	367	735
Frame#	Time	RPSI			LPSI			L3			STRN			T10			C7			CLAV			RBAK			LBAK			LSHO			LUPA			LAEL			LAOL			LWTS			LWPS			LFRA			LIFD			LHPS			LHTS			RSHO			RUPA			RAEL			RWTS			RWPS			RFRA			RIFD			RHTS			RHPS			RBHD			LFHD			RFHD			LBHD			LHIP			RHIP			RASI			LASI			LKNE			LTHI			LANK			LTIP			LTOE			LMT1			LMT5			LHEE			RKNE			RTHI			RANK			RTIP			RTOE			RMT1			RMT5			RHEE			RAOL			
		X1	Y1	Z1	X2	Y2	Z2	X3	Y3	Z3	X4	Y4	Z4	X5	Y5	Z5	X6	Y6	Z6	X7	Y7	Z7	X8	Y8	Z8	X9	Y9	Z9	X10	Y10	Z10	X11	Y11	Z11	X12	Y12	Z12	X13	Y13	Z13	X14	Y14	Z14	X15	Y15	Z15	X16	Y16	Z16	X17	Y17	Z17	X18	Y18	Z18	X19	Y19	Z19	X20	Y20	Z20	X21	Y21	Z21	X22	Y22	Z22	X23	Y23	Z23	X24	Y24	Z24	X25	Y25	Z25	X26	Y26	Z26	X27	Y27	Z27	X28	Y28	Z28	X29	Y29	Z29	X30	Y30	Z30	X31	Y31	Z31	X32	Y32	Z32	X33	Y33	Z33	X34	Y34	Z34	X35	Y35	Z35	X36	Y36	Z36	X37	Y37	Z37	X38	Y38	Z38	X39	Y39	Z39	X40	Y40	Z40	X41	Y41	Z41	X42	Y42	Z42	X43	Y43	Z43	X44	Y44	Z44	X45	Y45	Z45	X46	Y46	Z46	X47	Y47	Z47	X48	Y48	Z48	X49	Y49	Z49	X50	Y50	Z50	X51	Y51	Z51	X52	Y52	Z52	X53	Y53	Z53	

368	3.67	-330.3115539550781	1016.473388671875	-269.8814392089844	-417.5345764160156	1015.089111328125	-419.4639282226562	-376.105224609375	1082.060668945312	-352.2642211914062	-145.4887237548828	1273.586791992188	-474.9514465332031	-388.7518005371094	1213.983520507812	-355.3217163085938	-330.0772705078125	1479.3017578125	-386.7437133789062	-170.3489074707031	1388.973754882812	-463.9068298339844	-358.1266479492188	1342.479736328125	-290.8895874023438	-395.6557922363281	1444.245361328125	-464.5832824707031	-338.0133361816406	1450.957153320312	-574.742919921875	-404.2217712402344	1334.867919921875	-639.5337524414062	-425.8603820800781	1126.291015625	-682.601806640625	-433.2819213867188	1102.591186523438	-578.1290893554688	-332.8809509277344	881.0256958007812	-704.083740234375	-415.8928833007812	877.4606323242188	-721.63134765625	-422.0484924316406	1018.720642089844	-710.136962890625	-328.7020263671875	695.718505859375	-710.3680419921875	-392.2221984863281	797.4208984375	-745.6424560546875	-321.9071044921875	800.2504272460938	-729.5028686523438	-200.7138061523438	1442.031127929688	-257.0189819335938	-188.3675384521484	1375.91552734375	-193.0143280029297	-210.7489929199219	1118.9990234375	-129.8203887939453	-70.23839569091797	882.2379760742188	-226.8034057617188	-112.5464096069336	857.5355834960938	-154.8303527832031	-190.0507202148438	1036.079833984375	-125.1701583862305	-62.82453918457031	698.7448120117188	-262.128173828125	-37.55542373657227	782.9736938476562	-242.6335601806641	-70.50880432128906	772.4385375976562	-172.7899017333984	-281.2460327148438	1668.183349609375	-493.6181335449219	-131.3072357177734	1672.45263671875	-338.2805480957031	-107.6506881713867	1696.233154296875	-459.8821105957031	-296.861083984375	1635.595703125	-360.8429870605469	-368.7062377929688	956.6055297851562	-550.3980102539062	-235.3487243652344	944.784423828125	-229.02734375	-136.2738952636719	967.6541137695312	-309.4730529785156	-245.2341461181641	965.1796875	-554.8189697265625	-219.9351959228516	505.7095947265625	-570.4921264648438	-284.4801940917969	640.2146606445312	-584.0325317382812	-339.2452392578125	44.11555862426758	-588.9005737304688	-283.041259765625	262.82568359375	-592.76171875	-135.7863159179688	39.96131896972656	-622.0159301757812	-172.6437530517578	42.52451324462891	-559.297607421875	-246.0207977294922	34.45644378662109	-646.1395263671875	-374.8449401855469	42.90431594848633	-504.2355346679688	-67.81846618652344	519.5664672851562	-363.0780639648438	-127.012825012207	778.7118530273438	-290.1670227050781	-378.1038513183594	158.6631011962891	-237.6926422119141	-126.5340576171875	410.4120788574219	-334.6005249023438	-246.7150726318359	54.55291748046875	-367.0390319824219	-308.3186645507812	86.7603759765625	-373.3818054199219	-281.5146484375	93.13421630859375	-278.3501281738281	-434.4698486328125	191.5995178222656	-268.9660949707031	-229.1046447753906	1090.40625	-223.926513671875	
369	3.68	-325.6777648925781	1017.359619140625	-273.8840637207031	-410.9719543457031	1015.919311523438	-424.3317260742188	-370.6947937011719	1083.183349609375	-357.0461120605469	-137.6885833740234	1274.371459960938	-476.3304138183594	-382.8499145507812	1214.8984375	-360.9180603027344	-323.5777893066406	1480.139404296875	-391.4761352539062	-162.5795288085938	1389.780395507812	-465.6765747070312	-353.3341674804688	1343.414428710938	-296.1605224609375	-387.623046875	1445.190795898438	-470.4393310546875	-328.1151428222656	1452.011352539062	-579.4873657226562	-392.94873046875	1335.98779296875	-645.8131103515625	-412.9314575195312	1127.44189453125	-689.92822265625	-422.3121948242188	1103.361328125	-585.7317504882812	-318.3988342285156	882.6710815429688	-710.4341430664062	-400.9410095214844	878.792724609375	-729.6245727539062	-408.048095703125	1019.982482910156	-717.7581176757812	-313.2282104492188	697.39697265625	-717.3400268554688	-376.4495544433594	798.9924926757812	-753.4705200195312	-306.5107421875	802.0234375	-735.9105834960938	-196.5657196044922	1442.908447265625	-259.4107055664062	-185.4252166748047	1376.896850585938	-195.2330322265625	-209.6621398925781	1120.182250976562	-132.1952362060547	-67.11188507080078	882.9351196289062	-224.8443756103516	-111.2081451416016	858.548583984375	-153.873291015625	-189.27392578125	1037.267822265625	-126.8480834960938	-59.11984634399414	699.2081298828125	-259.2788391113281	-34.22848892211914	783.4609375	-239.4468231201172	-68.836669921875	773.3228759765625	-170.3606262207031	-272.82958984375	1668.946655273438	-497.2962341308594	-124.8799057006836	1673.1591796875	-340.0285034179688	-99.59104919433594	1696.816528320312	-461.4058837890625	-290.1262512207031	1636.5673828125	-364.6904296875	-360.9249572753906	957.2046508789062	-554.6790161132812	-230.7400512695312	946.3182983398438	-231.782470703125	-131.2033843994141	968.9718017578125	-311.204833984375	-237.294921875	965.6761474609375	-557.885498046875	-217.1247863769531	504.9610900878906	-571.7603149414062	-279.7592163085938	640.181396484375	-586.2725219726562	-339.1082153320312	44.22944259643555	-588.7393798828125	-281.8344116210938	262.501220703125	-593.3279418945312	-135.6790924072266	39.90567779541016	-621.9783935546875	-172.5253448486328	42.40037536621094	-559.231201171875	-245.8931579589844	34.45375823974609	-646.0230712890625	-374.7683715820312	42.96966552734375	-504.1161193847656	-55.03935623168945	523.7489013671875	-364.8817749023438	-119.2445526123047	781.9445190429688	-291.6083374023438	-357.5509338378906	151.7826995849609	-251.6448974609375	-112.2153396606445	412.6813049316406	-338.5121154785156	-217.3760528564453	55.09580612182617	-377.0316772460938	-280.18017578125	84.12446594238281	-385.2124633789062	-256.7207336425781	91.57914733886719	-289.6502990722656	-414.6011352539062	182.0780334472656	-284.5657653808594	-225.8104095458984	1091.410278320312	-226.6359252929688	
370	3.69	-320.9867553710938	1018.126831054688	-277.828857421875	-404.359130859375	1016.638854980469	-429.1258544921875	-365.2428588867188	1084.166137695312	-361.7575073242188	-129.8751373291016	1275.025024414062	-477.6001281738281	-376.808349609375	1215.688232421875	-366.4293212890625	-316.9898986816406	1480.857788085938	-396.0754699707031	-154.7946319580078	1390.452270507812	-467.3401489257812	-348.4205017089844	1344.218872070312	-301.3214416503906	-379.5087280273438	1445.997924804688	-476.1295166015625	-318.2005310058594	1452.90478515625	-584.041748046875	-381.6617431640625	1336.958374023438	-651.8298950195312	-400.0715637207031	1128.460815429688	-696.969482421875	-411.283935546875	1103.984985351562	-593.0969848632812	-303.7906494140625	884.2854614257812	-716.5414428710938	-385.8540954589844	879.9735107421875	-737.2208251953125	-394.0584106445312	1021.111267089844	-725.06689453125	-297.2724304199219	699.095703125	-724.019775390625	-360.4512634277344	800.4412231445312	-760.8977661132812	-290.8695678710938	803.8340454101562	-742.0910034179688	-192.337646484375	1443.664672851562	-261.7728881835938	-182.3998870849609	1377.79443359375	-197.4185791015625	-208.4932098388672	1121.294799804688	-134.5268707275391	-64.08139801025391	883.5542602539062	-222.916259765625	-109.9329833984375	859.4688110351562	-152.9450836181641	-188.4539947509766	1038.3779296875	-128.5005187988281	-55.70405197143555	699.5907592773438	-256.5022888183594	-31.10939598083496	783.8546752929688	-236.3435668945312	-67.29341888427734	774.097412109375	-168.0282745361328	-264.3771667480469	1669.619384765625	-500.8004760742188	-118.4446182250977	1673.723388671875	-341.6405334472656	-91.53739166259766	1697.286254882812	-462.76171875	-283.3575744628906	1637.412963867188	-368.3957214355469	-353.0830688476562	957.6961669921875	-558.8724365234375	-226.1104888916016	947.6666259765625	-234.540283203125	-126.0743713378906	970.1092529296875	-312.9115295410156	-229.3148651123047	966.054931640625	-560.8677368164062	-214.4291381835938	504.1953735351562	-572.9947509765625	-275.1559143066406	640.0740356445312	-588.3943481445312	-338.9552001953125	44.3544807434082	-588.5504760742188	-280.7252197265625	262.1859436035156	-593.836181640625	-135.5590667724609	39.84856033325195	-621.9310302734375	-172.3923950195312	42.26781463623047	-559.15380859375	-245.7548522949219	34.46596527099609	-645.8846435546875	-374.6890563964844	43.03725433349609	-503.9745788574219	-42.8381233215332	527.7214965820312	-366.2551879882812	-111.5278930664062	785.0780639648438	-292.9827575683594	-336.2176818847656	144.1667327880859	-265.5772399902344	-98.15756988525391	414.5685119628906	-342.0616760253906	-187.7766571044922	55.64158630371094	-386.8579711914062	-251.4529113769531	81.55921173095703	-396.8072509765625	-231.5912933349609	89.52413940429688	-300.8364868164062	-393.72216796875	171.8961944580078	-300.1033325195312	-222.4515380859375	1092.336547851562	-229.2228088378906	
371	3.7	-316.2120361328125	1018.770263671875	-281.7097473144531	-397.682373046875	1017.248657226562	-433.8381652832031	-359.7168273925781	1084.9912109375	-366.3774719238281	-122.0422821044922	1275.526123046875	-478.770751953125	-370.6528015136719	1216.336059570312	-371.8252868652344	-310.2901306152344	1481.442749023438	-400.5386352539062	-146.9853820800781	1390.966186523438	-468.9072875976562	-343.3782653808594	1344.876220703125	-306.3633422851562	-371.3396606445312	1446.648803710938	-481.6498718261719	-308.2672729492188	1453.614135742188	-588.411376953125	-370.3578491210938	1337.75439453125	-657.5908203125	-387.2702026367188	1129.32373046875	-703.7399291992188	-400.2159729003906	1104.443725585938	-600.23486328125	-289.062744140625	885.8446044921875	-722.3842163085938	-370.6415405273438	880.9874877929688	-744.429931640625	-380.0780944824219	1022.084228515625	-732.0731201171875	-280.86474609375	700.7903442382812	-730.3842163085938	-344.2462158203125	801.7509765625	-767.9293212890625	-275.0015258789062	805.6568603515625	-748.0218505859375	-188.0166320800781	1444.26611328125	-264.1063232421875	-179.2817230224609	1378.568725585938	-199.5638732910156	-207.2246704101562	1122.300048828125	-136.7964324951172	-61.13435745239258	884.0674438476562	-221.0528106689453	-108.6916275024414	860.260009765625	-152.0604400634766	-187.5486755371094	1039.37841796875	-130.1046295166016	-52.53263473510742	699.8702392578125	-253.83154296875	-28.15769004821777	784.14208984375	-233.3586120605469	-65.84838104248047	774.73095703125	-165.8209533691406	-255.8883514404297	1670.17431640625	-504.1351318359375	-111.9998168945312	1674.138427734375	-343.12646484375	-83.49239349365234	1697.6298828125	-463.9512329101562	-276.5579528808594	1638.10009765625	-371.9666442871094	-345.1784362792969	958.0776977539062	-562.9711303710938	-221.4480285644531	948.80224609375	-237.3114929199219	-120.8782272338867	971.0433959960938	-314.6043395996094	-221.3059692382812	966.3135375976562	-563.7633056640625	-211.793212890625	503.4067077636719	-574.2137451171875	-270.62744140625	639.8958740234375	-590.4149780273438	-338.7957763671875	44.4829216003418	-588.347900390625	-279.64599609375	261.8701782226562	-594.3080444335938	-135.4305114746094	39.79085159301758	-621.8759765625	-172.2537689208984	42.13211822509766	-559.0692138671875	-245.6102905273438	34.48815155029297	-645.7327270507812	-374.6199645996094	43.11508178710938	-503.8246765136719	-31.22742652893066	531.41064453125	-367.2471313476562	-103.9800338745117	787.9649047851562	-294.2258911132812	-314.11962890625	136.041015625	-279.412109375	-84.35330963134766	416.0445861816406	-345.3042907714844	-157.8644714355469	56.26973724365234	-396.3012390136719	-222.1298675537109	79.12032318115234	-407.9868469238281	-206.0906982421875	87.14242553710938	-311.7356567382812	-371.8641357421875	161.2499389648438	-315.5526428222656	-219.0215454101562	1093.144775390625	-231.6662445068359	
